<svg width="24" height="25" viewBox="0 0 24 25" fill="none" xmlns="http://www.w3.org/2000/svg">
<path d="M1 6.77111C1 6.3211 1.3648 5.9563 1.81481 5.9563H3.05474C3.50475 5.9563 3.86956 6.3211 3.86956 6.77111V8.12914C3.86956 8.57915 3.50475 8.94395 3.05474 8.94395H1.81482C1.36481 8.94395 1 8.57915 1 8.12914V6.77111Z" fill="#C62306"/>
<path d="M5.78266 6.77111C5.78266 6.3211 6.14746 5.9563 6.59747 5.9563H7.8374C8.28741 5.9563 8.65222 6.3211 8.65222 6.77111V8.12914C8.65222 8.57915 8.28741 8.94395 7.8374 8.94395H6.59748C6.14747 8.94395 5.78266 8.57915 5.78266 8.12914V6.77111Z" fill="#C62306"/>
<path d="M15.3478 6.77111C15.3478 6.3211 15.7126 5.9563 16.1626 5.9563H17.4025C17.8525 5.9563 18.2173 6.3211 18.2173 6.77111V8.12914C18.2173 8.57915 17.8525 8.94395 17.4025 8.94395H16.1626C15.7126 8.94395 15.3478 8.57915 15.3478 8.12914V6.77111Z" fill="#C62306"/>
<path d="M20.1304 6.77111C20.1304 6.3211 20.4952 5.9563 20.9453 5.9563H22.1852C22.6352 5.9563 23 6.3211 23 6.77111V8.12914C23 8.57915 22.6352 8.94395 22.1852 8.94395H20.9453C20.4952 8.94395 20.1304 8.57915 20.1304 8.12914V6.77111Z" fill="#C62306"/>
<path d="M1 11.7506C1 11.3006 1.3648 10.9357 1.81481 10.9357H3.05474C3.50475 10.9357 3.86956 11.3006 3.86956 11.7506V13.1086C3.86956 13.5586 3.50475 13.9234 3.05474 13.9234H1.81482C1.36481 13.9234 1 13.5586 1 13.1086V11.7506Z" fill="#C62306"/>
<path d="M5.78266 11.7506C5.78266 11.3006 6.14746 10.9357 6.59747 10.9357H7.8374C8.28741 10.9357 8.65222 11.3006 8.65222 11.7506V13.1086C8.65222 13.5586 8.28741 13.9234 7.8374 13.9234H6.59748C6.14747 13.9234 5.78266 13.5586 5.78266 13.1086V11.7506Z" fill="#C62306"/>
<path d="M10.5651 11.7506C10.5651 11.3006 10.9299 10.9357 11.3799 10.9357H12.6199C13.0699 10.9357 13.4347 11.3006 13.4347 11.7506V13.1086C13.4347 13.5586 13.0699 13.9234 12.6199 13.9234H11.3799C10.9299 13.9234 10.5651 13.5586 10.5651 13.1086V11.7506Z" fill="#C62306"/>
<path d="M15.3478 11.7506C15.3478 11.3006 15.7126 10.9357 16.1626 10.9357H17.4025C17.8525 10.9357 18.2173 11.3006 18.2173 11.7506V13.1086C18.2173 13.5586 17.8525 13.9234 17.4025 13.9234H16.1626C15.7126 13.9234 15.3478 13.5586 15.3478 13.1086V11.7506Z" fill="#C62306"/>
<path d="M20.1304 11.7506C20.1304 11.3006 20.4952 10.9357 20.9453 10.9357H22.1852C22.6352 10.9357 23 11.3006 23 11.7506V13.1086C23 13.5586 22.6352 13.9234 22.1852 13.9234H20.9453C20.4952 13.9234 20.1304 13.5586 20.1304 13.1086V11.7506Z" fill="#C62306"/>
<path d="M5.78266 16.73C5.78266 16.28 6.14746 15.9152 6.59747 15.9152H7.8374C8.28741 15.9152 8.65222 16.28 8.65222 16.73V18.088C8.65222 18.538 8.28741 18.9028 7.8374 18.9028H6.59748C6.14747 18.9028 5.78266 18.538 5.78266 18.088V16.73Z" fill="#C62306"/>
<path d="M10.5651 16.73C10.5651 16.28 10.9299 15.9152 11.3799 15.9152H12.6199C13.0699 15.9152 13.4347 16.28 13.4347 16.73V18.088C13.4347 18.538 13.0699 18.9028 12.6199 18.9028H11.3799C10.9299 18.9028 10.5651 18.538 10.5651 18.088V16.73Z" fill="#C62306"/>
<path d="M20.1304 16.73C20.1304 16.28 20.4952 15.9152 20.9453 15.9152H22.1852C22.6352 15.9152 23 16.28 23 16.73V18.088C23 18.538 22.6352 18.9028 22.1852 18.9028H20.9453C20.4952 18.9028 20.1304 18.538 20.1304 18.088V16.73Z" fill="#C62306"/>
</svg>
