<svg width="8" height="8" viewBox="0 0 8 8" fill="none" xmlns="http://www.w3.org/2000/svg">
<path d="M7.67712 5.33469L5.49512 3.99996L7.67704 2.66523C7.71458 2.64222 7.74148 2.60527 7.75178 2.56242C7.76208 2.51957 7.75493 2.4744 7.73201 2.43686L7.09085 1.38879C7.0431 1.31057 6.94071 1.2859 6.86248 1.33373L4.77963 2.60793V0.166084C4.77963 0.0744055 4.70522 0 4.61354 0H3.38511C3.29343 0 3.21902 0.0744055 3.21902 0.166084V2.60793L1.13609 1.33382C1.05769 1.28599 0.955553 1.31057 0.907721 1.38887L0.266555 2.43695C0.243636 2.47448 0.236494 2.51965 0.246791 2.5625C0.257089 2.60535 0.283994 2.64231 0.321529 2.66531L2.50354 3.99996L0.321529 5.33469C0.283994 5.35761 0.257089 5.39465 0.246791 5.43741C0.236494 5.48034 0.243636 5.52552 0.266555 5.56305L0.907721 6.61104C0.955553 6.68927 1.05769 6.71401 1.13609 6.66618L3.21902 5.39199V7.83383C3.21902 7.92551 3.29343 7.99992 3.38511 7.99992H4.61354C4.70522 7.99992 4.77963 7.92551 4.77963 7.83383V5.39207L6.86257 6.6661C6.94079 6.71393 7.04318 6.68927 7.09093 6.61113L7.7321 5.56305C7.75502 5.52552 7.76216 5.48034 7.75186 5.4375C7.74165 5.39456 7.71466 5.35769 7.67712 5.33469Z" fill="#C62306"/>
</svg>
