<svg width="32" height="32" viewBox="0 0 32 32" fill="none" xmlns="http://www.w3.org/2000/svg">
<path d="M16 1C7.72913 1 1 7.72913 1 16C1 24.2709 7.72913 31 16 31C24.2709 31 31 24.2709 31 16C31 7.72913 24.2709 1 16 1ZM17.172 23.7837C17.172 23.9246 17.078 24.0172 16.9385 24.0172H15.1607C15.0191 24.0172 14.9265 23.9239 14.9265 23.7837V21.7724C14.9265 21.6322 15.0198 21.5389 15.1607 21.5389H16.9385C17.0787 21.5389 17.172 21.6328 17.172 21.7724V23.7837ZM19.2296 14.8704L17.6624 17.0226C17.1948 17.6539 17.0539 17.9813 17.0539 18.7763V19.5243C17.0539 19.6646 16.9607 19.7578 16.8204 19.7578H15.2767C15.1365 19.7604 15.0433 19.6665 15.0433 19.5263V18.5676C15.0433 17.6311 15.2533 17.1407 15.7443 16.4617L17.3122 14.3096C18.13 13.1872 18.4104 12.6491 18.4104 11.8535C18.4104 10.5204 17.4752 9.67848 16.1415 9.67848C14.832 9.67848 13.99 10.4735 13.7096 11.9004C13.6861 12.0407 13.5928 12.1111 13.452 12.0876L11.9787 11.83C11.8378 11.8065 11.768 11.7133 11.7909 11.5724C12.1424 9.32696 13.7565 7.85304 16.1891 7.85304C18.7143 7.85304 20.4217 9.51348 20.4217 11.8293C20.4217 12.9524 20.0252 13.7709 19.2296 14.8704Z" fill="#C4C4C4"/>
</svg>
